<?xml version="1.0" encoding="UTF-8" standalone="no"?>
<!DOCTYPE svg PUBLIC "-//W3C//DTD SVG 1.1//EN"
 "http://www.w3.org/Graphics/SVG/1.1/DTD/svg11.dtd">
<!-- Generated by graphviz version 2.42.3 (20191010.1750)
 -->
<!-- Title: finite_state_machine Pages: 1 -->
<svg width="629pt" height="268pt"
 viewBox="0.00 0.00 628.99 268.00" xmlns="http://www.w3.org/2000/svg" xmlns:xlink="http://www.w3.org/1999/xlink">
<g id="graph0" class="graph" transform="scale(1 1) rotate(0) translate(4 264)">
<title>finite_state_machine</title>
<polygon fill="white" stroke="transparent" points="-4,4 -4,-264 624.99,-264 624.99,4 -4,4"/>
<!-- 5 -->
<g id="node1" class="node">
<title>5</title>
<ellipse fill="none" stroke="black" cx="307.5" cy="-201" rx="18" ry="18"/>
<text text-anchor="middle" x="307.5" y="-197.3" font-family="Times,serif" font-size="14.00">5</text>
</g>
<!-- 7 -->
<g id="node2" class="node">
<title>7</title>
<ellipse fill="none" stroke="black" cx="417" cy="-242" rx="18" ry="18"/>
<text text-anchor="middle" x="417" y="-238.3" font-family="Times,serif" font-size="14.00">7</text>
</g>
<!-- 5&#45;&gt;7 -->
<g id="edge1" class="edge">
<title>5&#45;&gt;7</title>
<path fill="none" stroke="black" d="M324.82,-207.23C342.21,-213.86 369.96,-224.44 390.29,-232.2"/>
<polygon fill="black" stroke="black" points="389.28,-235.56 399.87,-235.85 391.77,-229.01 389.28,-235.56"/>
<text text-anchor="middle" x="363" y="-230.8" font-family="Times,serif" font-size="14.00">1/1</text>
</g>
<!-- 10 -->
<g id="node3" class="node">
<title>10</title>
<ellipse fill="none" stroke="black" cx="508.49" cy="-191" rx="19.5" ry="19.5"/>
<text text-anchor="middle" x="508.49" y="-187.3" font-family="Times,serif" font-size="14.00">10</text>
</g>
<!-- 5&#45;&gt;10 -->
<g id="edge2" class="edge">
<title>5&#45;&gt;10</title>
<path fill="none" stroke="black" d="M325.81,-200.13C360.08,-198.41 436.88,-194.55 478.82,-192.44"/>
<polygon fill="black" stroke="black" points="479.12,-195.93 488.93,-191.93 478.77,-188.94 479.12,-195.93"/>
<text text-anchor="middle" x="417" y="-199.8" font-family="Times,serif" font-size="14.00">1/1</text>
</g>
<!-- 7&#45;&gt;10 -->
<g id="edge18" class="edge">
<title>7&#45;&gt;10</title>
<path fill="none" stroke="black" d="M433.18,-233.35C446.6,-225.7 466.45,-214.39 482.26,-205.38"/>
<polygon fill="black" stroke="black" points="484.07,-208.38 491.02,-200.39 480.6,-202.3 484.07,-208.38"/>
<text text-anchor="middle" x="462" y="-224.8" font-family="Times,serif" font-size="14.00">0/1</text>
</g>
<!-- 12 -->
<g id="node9" class="node">
<title>12</title>
<ellipse fill="none" stroke="black" cx="601.49" cy="-223" rx="19.5" ry="19.5"/>
<text text-anchor="middle" x="601.49" y="-219.3" font-family="Times,serif" font-size="14.00">12</text>
</g>
<!-- 7&#45;&gt;12 -->
<g id="edge19" class="edge">
<title>7&#45;&gt;12</title>
<path fill="none" stroke="black" d="M435.21,-241.74C445.59,-241.49 459.07,-240.99 471,-240 512.53,-236.54 522.68,-233.49 563.99,-228 566.54,-227.66 569.2,-227.3 571.85,-226.94"/>
<polygon fill="black" stroke="black" points="572.49,-230.39 581.93,-225.57 571.55,-223.45 572.49,-230.39"/>
<text text-anchor="middle" x="508.49" y="-241.8" font-family="Times,serif" font-size="14.00">1/2</text>
</g>
<!-- 10&#45;&gt;12 -->
<g id="edge9" class="edge">
<title>10&#45;&gt;12</title>
<path fill="none" stroke="black" d="M527.04,-197.17C540.05,-201.74 558.03,-208.07 572.95,-213.32"/>
<polygon fill="black" stroke="black" points="572.09,-216.72 582.69,-216.74 574.42,-210.12 572.09,-216.72"/>
<text text-anchor="middle" x="554.99" y="-212.8" font-family="Times,serif" font-size="14.00">6/6</text>
</g>
<!-- 6 -->
<g id="node4" class="node">
<title>6</title>
<ellipse fill="none" stroke="black" cx="307.5" cy="-86" rx="18" ry="18"/>
<text text-anchor="middle" x="307.5" y="-82.3" font-family="Times,serif" font-size="14.00">6</text>
</g>
<!-- 9 -->
<g id="node5" class="node">
<title>9</title>
<ellipse fill="none" stroke="black" cx="417" cy="-86" rx="18" ry="18"/>
<text text-anchor="middle" x="417" y="-82.3" font-family="Times,serif" font-size="14.00">9</text>
</g>
<!-- 6&#45;&gt;9 -->
<g id="edge3" class="edge">
<title>6&#45;&gt;9</title>
<path fill="none" stroke="black" d="M325.77,-86C342.7,-86 368.76,-86 388.53,-86"/>
<polygon fill="black" stroke="black" points="388.77,-89.5 398.77,-86 388.77,-82.5 388.77,-89.5"/>
<text text-anchor="middle" x="363" y="-89.8" font-family="Times,serif" font-size="14.00">2/2</text>
</g>
<!-- 9&#45;&gt;10 -->
<g id="edge17" class="edge">
<title>9&#45;&gt;10</title>
<path fill="none" stroke="black" d="M434.62,-90.5C446.08,-94.34 460.99,-100.86 471,-111 484.94,-125.12 494.14,-145.54 499.81,-162.21"/>
<polygon fill="black" stroke="black" points="496.55,-163.53 502.9,-172.01 503.23,-161.42 496.55,-163.53"/>
<text text-anchor="middle" x="462" y="-114.8" font-family="Times,serif" font-size="14.00">3/4</text>
</g>
<!-- 2 -->
<g id="node6" class="node">
<title>2</title>
<ellipse fill="none" stroke="black" cx="162" cy="-204" rx="18" ry="18"/>
<text text-anchor="middle" x="162" y="-200.3" font-family="Times,serif" font-size="14.00">2</text>
</g>
<!-- 2&#45;&gt;5 -->
<g id="edge4" class="edge">
<title>2&#45;&gt;5</title>
<path fill="none" stroke="black" d="M180.02,-203.64C204.51,-203.13 249.94,-202.18 279.17,-201.57"/>
<polygon fill="black" stroke="black" points="279.57,-205.06 289.5,-201.36 279.42,-198.07 279.57,-205.06"/>
<text text-anchor="middle" x="216" y="-206.8" font-family="Times,serif" font-size="14.00">2/2</text>
</g>
<!-- 1 -->
<g id="node7" class="node">
<title>1</title>
<ellipse fill="none" stroke="black" cx="216" cy="-143" rx="18" ry="18"/>
<text text-anchor="middle" x="216" y="-139.3" font-family="Times,serif" font-size="14.00">1</text>
</g>
<!-- 1&#45;&gt;5 -->
<g id="edge6" class="edge">
<title>1&#45;&gt;5</title>
<path fill="none" stroke="black" d="M231.78,-152.58C245.85,-161.7 267.25,-175.57 283.55,-186.13"/>
<polygon fill="black" stroke="black" points="281.7,-189.1 291.99,-191.6 285.51,-183.23 281.7,-189.1"/>
<text text-anchor="middle" x="261" y="-180.8" font-family="Times,serif" font-size="14.00">0/2</text>
</g>
<!-- 1&#45;&gt;6 -->
<g id="edge5" class="edge">
<title>1&#45;&gt;6</title>
<path fill="none" stroke="black" d="M227.71,-128.81C234.07,-121.19 242.7,-112.13 252,-106 260.53,-100.38 270.85,-96.08 280.2,-92.93"/>
<polygon fill="black" stroke="black" points="281.31,-96.25 289.84,-89.95 279.25,-89.56 281.31,-96.25"/>
<text text-anchor="middle" x="261" y="-109.8" font-family="Times,serif" font-size="14.00">2/2</text>
</g>
<!-- 4 -->
<g id="node8" class="node">
<title>4</title>
<ellipse fill="none" stroke="black" cx="363" cy="-141" rx="18" ry="18"/>
<text text-anchor="middle" x="363" y="-137.3" font-family="Times,serif" font-size="14.00">4</text>
</g>
<!-- 1&#45;&gt;4 -->
<g id="edge7" class="edge">
<title>1&#45;&gt;4</title>
<path fill="none" stroke="black" d="M234.2,-142.76C259.06,-142.42 305.26,-141.78 334.77,-141.38"/>
<polygon fill="black" stroke="black" points="334.87,-144.87 344.82,-141.24 334.77,-137.88 334.87,-144.87"/>
<text text-anchor="middle" x="261" y="-145.8" font-family="Times,serif" font-size="14.00">2/2</text>
</g>
<!-- 4&#45;&gt;10 -->
<g id="edge8" class="edge">
<title>4&#45;&gt;10</title>
<path fill="none" stroke="black" d="M380.99,-142.7C395.59,-144.5 417.07,-147.93 435,-154 451.53,-159.6 468.98,-168.41 482.62,-176.02"/>
<polygon fill="black" stroke="black" points="480.98,-179.12 491.39,-181.05 484.46,-173.04 480.98,-179.12"/>
<text text-anchor="middle" x="417" y="-157.8" font-family="Times,serif" font-size="14.00">2/2</text>
</g>
<!-- 0 -->
<g id="node10" class="node">
<title>0</title>
<ellipse fill="none" stroke="black" cx="18" cy="-143" rx="18" ry="18"/>
<text text-anchor="middle" x="18" y="-139.3" font-family="Times,serif" font-size="14.00">0</text>
</g>
<!-- 0&#45;&gt;2 -->
<g id="edge11" class="edge">
<title>0&#45;&gt;2</title>
<path fill="none" stroke="black" d="M34.74,-149.76C59.16,-160.25 106.39,-180.54 135.66,-193.11"/>
<polygon fill="black" stroke="black" points="134.62,-196.48 145.19,-197.21 137.38,-190.05 134.62,-196.48"/>
<text text-anchor="middle" x="63" y="-168.8" font-family="Times,serif" font-size="14.00">2/2</text>
</g>
<!-- 0&#45;&gt;1 -->
<g id="edge10" class="edge">
<title>0&#45;&gt;1</title>
<path fill="none" stroke="black" d="M36.05,-143C70.08,-143 146.66,-143 187.74,-143"/>
<polygon fill="black" stroke="black" points="187.85,-146.5 197.85,-143 187.85,-139.5 187.85,-146.5"/>
<text text-anchor="middle" x="108" y="-146.8" font-family="Times,serif" font-size="14.00">4/4</text>
</g>
<!-- 3 -->
<g id="node11" class="node">
<title>3</title>
<ellipse fill="none" stroke="black" cx="108" cy="-72" rx="18" ry="18"/>
<text text-anchor="middle" x="108" y="-68.3" font-family="Times,serif" font-size="14.00">3</text>
</g>
<!-- 0&#45;&gt;3 -->
<g id="edge12" class="edge">
<title>0&#45;&gt;3</title>
<path fill="none" stroke="black" d="M32.24,-131.91C38.76,-126.48 46.77,-119.86 54,-114 64.3,-105.65 75.83,-96.5 85.49,-88.87"/>
<polygon fill="black" stroke="black" points="87.74,-91.56 93.43,-82.62 83.41,-86.06 87.74,-91.56"/>
<text text-anchor="middle" x="63" y="-117.8" font-family="Times,serif" font-size="14.00">1/2</text>
</g>
<!-- 3&#45;&gt;6 -->
<g id="edge13" class="edge">
<title>3&#45;&gt;6</title>
<path fill="none" stroke="black" d="M126.18,-73.22C160.55,-75.65 238.03,-81.15 279.34,-84.08"/>
<polygon fill="black" stroke="black" points="279.27,-87.58 289.5,-84.79 279.77,-80.6 279.27,-87.58"/>
<text text-anchor="middle" x="216" y="-83.8" font-family="Times,serif" font-size="14.00">0/2</text>
</g>
<!-- 8 -->
<g id="node12" class="node">
<title>8</title>
<ellipse fill="none" stroke="black" cx="216" cy="-18" rx="18" ry="18"/>
<text text-anchor="middle" x="216" y="-14.3" font-family="Times,serif" font-size="14.00">8</text>
</g>
<!-- 3&#45;&gt;8 -->
<g id="edge14" class="edge">
<title>3&#45;&gt;8</title>
<path fill="none" stroke="black" d="M121.48,-59.8C127.83,-54.11 135.9,-47.59 144,-43 157.86,-35.15 174.63,-29.11 188.38,-24.93"/>
<polygon fill="black" stroke="black" points="189.57,-28.23 198.22,-22.1 187.64,-21.5 189.57,-28.23"/>
<text text-anchor="middle" x="162" y="-46.8" font-family="Times,serif" font-size="14.00">1/2</text>
</g>
<!-- 11 -->
<g id="node13" class="node">
<title>11</title>
<ellipse fill="none" stroke="black" cx="307.5" cy="-27" rx="19.5" ry="19.5"/>
<text text-anchor="middle" x="307.5" y="-23.3" font-family="Times,serif" font-size="14.00">11</text>
</g>
<!-- 8&#45;&gt;11 -->
<g id="edge15" class="edge">
<title>8&#45;&gt;11</title>
<path fill="none" stroke="black" d="M234.26,-19.74C246.56,-20.97 263.39,-22.67 277.72,-24.11"/>
<polygon fill="black" stroke="black" points="277.76,-27.63 288.06,-25.15 278.46,-20.66 277.76,-27.63"/>
<text text-anchor="middle" x="261" y="-27.8" font-family="Times,serif" font-size="14.00">1/2</text>
</g>
<!-- 11&#45;&gt;9 -->
<g id="edge16" class="edge">
<title>11&#45;&gt;9</title>
<path fill="none" stroke="black" d="M324.82,-35.96C342.67,-45.76 371.45,-61.55 391.9,-72.77"/>
<polygon fill="black" stroke="black" points="390.46,-75.98 400.91,-77.72 393.83,-69.84 390.46,-75.98"/>
<text text-anchor="middle" x="363" y="-68.8" font-family="Times,serif" font-size="14.00">1/2</text>
</g>
</g>
</svg>
