<?xml version="1.0" encoding="UTF-8" standalone="no"?>
<!DOCTYPE svg PUBLIC "-//W3C//DTD SVG 1.1//EN"
 "http://www.w3.org/Graphics/SVG/1.1/DTD/svg11.dtd">
<!-- Generated by graphviz version 2.42.3 (20191010.1750)
 -->
<!-- Title: finite_state_machine Pages: 1 -->
<svg width="444pt" height="154pt"
 viewBox="0.00 0.00 444.00 154.00" xmlns="http://www.w3.org/2000/svg" xmlns:xlink="http://www.w3.org/1999/xlink">
<g id="graph0" class="graph" transform="scale(1 1) rotate(0) translate(4 150)">
<title>finite_state_machine</title>
<polygon fill="white" stroke="transparent" points="-4,4 -4,-150 440,-150 440,4 -4,4"/>
<!-- 3 -->
<g id="node1" class="node">
<title>3</title>
<ellipse fill="none" stroke="black" cx="121" cy="-77" rx="18" ry="18"/>
<text text-anchor="middle" x="121" y="-73.3" font-family="Times,serif" font-size="14.00">3</text>
</g>
<!-- 4 -->
<g id="node2" class="node">
<title>4</title>
<ellipse fill="none" stroke="black" cx="321" cy="-71" rx="18" ry="18"/>
<text text-anchor="middle" x="321" y="-67.3" font-family="Times,serif" font-size="14.00">4</text>
</g>
<!-- 3&#45;&gt;4 -->
<g id="edge1" class="edge">
<title>3&#45;&gt;4</title>
<path fill="none" stroke="black" d="M139.22,-76.48C173.69,-75.43 251.35,-73.08 292.78,-71.82"/>
<polygon fill="black" stroke="black" points="293.07,-75.32 302.96,-71.52 292.85,-68.32 293.07,-75.32"/>
<text text-anchor="middle" x="224" y="-77.8" font-family="Times,serif" font-size="14.00">0/5</text>
</g>
<!-- 2 -->
<g id="node3" class="node">
<title>2</title>
<ellipse fill="none" stroke="black" cx="224" cy="-128" rx="18" ry="18"/>
<text text-anchor="middle" x="224" y="-124.3" font-family="Times,serif" font-size="14.00">2</text>
</g>
<!-- 3&#45;&gt;2 -->
<g id="edge2" class="edge">
<title>3&#45;&gt;2</title>
<path fill="none" stroke="black" d="M137.34,-84.75C153.58,-92.95 179.45,-106.01 198.51,-115.64"/>
<polygon fill="black" stroke="black" points="197.01,-118.8 207.52,-120.18 200.17,-112.55 197.01,-118.8"/>
<text text-anchor="middle" x="172.5" y="-113.8" font-family="Times,serif" font-size="14.00">0/2</text>
</g>
<!-- 1 -->
<g id="node4" class="node">
<title>1</title>
<ellipse fill="none" stroke="black" cx="224" cy="-18" rx="18" ry="18"/>
<text text-anchor="middle" x="224" y="-14.3" font-family="Times,serif" font-size="14.00">1</text>
</g>
<!-- 3&#45;&gt;1 -->
<g id="edge3" class="edge">
<title>3&#45;&gt;1</title>
<path fill="none" stroke="black" d="M134.67,-65.11C141.05,-59.49 149.11,-52.94 157,-48 169.71,-40.04 184.89,-32.99 197.48,-27.73"/>
<polygon fill="black" stroke="black" points="198.97,-30.9 206.93,-23.91 196.35,-24.42 198.97,-30.9"/>
<text text-anchor="middle" x="172.5" y="-51.8" font-family="Times,serif" font-size="14.00">10/11</text>
</g>
<!-- 5 -->
<g id="node5" class="node">
<title>5</title>
<ellipse fill="none" stroke="black" cx="418" cy="-30" rx="18" ry="18"/>
<text text-anchor="middle" x="418" y="-26.3" font-family="Times,serif" font-size="14.00">5</text>
</g>
<!-- 4&#45;&gt;5 -->
<g id="edge10" class="edge">
<title>4&#45;&gt;5</title>
<path fill="none" stroke="black" d="M337.69,-64.23C352.4,-57.88 374.65,-48.28 391.85,-40.86"/>
<polygon fill="black" stroke="black" points="393.49,-43.96 401.29,-36.78 390.72,-37.53 393.49,-43.96"/>
<text text-anchor="middle" x="369.5" y="-58.8" font-family="Times,serif" font-size="14.00">8/14</text>
</g>
<!-- 2&#45;&gt;4 -->
<g id="edge9" class="edge">
<title>2&#45;&gt;4</title>
<path fill="none" stroke="black" d="M239.84,-119.09C255.04,-109.97 278.88,-95.67 296.62,-85.03"/>
<polygon fill="black" stroke="black" points="298.49,-87.99 305.26,-79.84 294.88,-81.99 298.49,-87.99"/>
<text text-anchor="middle" x="272.5" y="-109.8" font-family="Times,serif" font-size="14.00">8/12</text>
</g>
<!-- 1&#45;&gt;4 -->
<g id="edge4" class="edge">
<title>1&#45;&gt;4</title>
<path fill="none" stroke="black" d="M240.55,-25.16C252.82,-30.95 270.27,-39.51 285,-48 289.01,-50.31 293.18,-52.89 297.2,-55.46"/>
<polygon fill="black" stroke="black" points="295.32,-58.42 305.6,-60.99 299.16,-52.57 295.32,-58.42"/>
<text text-anchor="middle" x="272.5" y="-51.8" font-family="Times,serif" font-size="14.00">0/1</text>
</g>
<!-- 1&#45;&gt;5 -->
<g id="edge5" class="edge">
<title>1&#45;&gt;5</title>
<path fill="none" stroke="black" d="M242.04,-19.06C275.41,-21.15 349.64,-25.79 389.85,-28.3"/>
<polygon fill="black" stroke="black" points="389.8,-31.81 400,-28.94 390.24,-24.82 389.8,-31.81"/>
<text text-anchor="middle" x="321" y="-27.8" font-family="Times,serif" font-size="14.00">17/21</text>
</g>
<!-- 0 -->
<g id="node6" class="node">
<title>0</title>
<ellipse fill="none" stroke="black" cx="18" cy="-77" rx="18" ry="18"/>
<text text-anchor="middle" x="18" y="-73.3" font-family="Times,serif" font-size="14.00">0</text>
</g>
<!-- 0&#45;&gt;3 -->
<g id="edge7" class="edge">
<title>0&#45;&gt;3</title>
<path fill="none" stroke="black" d="M36.13,-77C51.59,-77 74.58,-77 92.59,-77"/>
<polygon fill="black" stroke="black" points="92.78,-80.5 102.78,-77 92.78,-73.5 92.78,-80.5"/>
<text text-anchor="middle" x="69.5" y="-80.8" font-family="Times,serif" font-size="14.00">10/10</text>
</g>
<!-- 0&#45;&gt;2 -->
<g id="edge8" class="edge">
<title>0&#45;&gt;2</title>
<path fill="none" stroke="black" d="M33.99,-86.05C40.06,-89.47 47.22,-93.21 54,-96 98.09,-114.14 109.91,-118.55 157,-126 169.57,-127.99 183.65,-128.63 195.57,-128.72"/>
<polygon fill="black" stroke="black" points="195.81,-132.21 205.8,-128.66 195.78,-125.21 195.81,-132.21"/>
<text text-anchor="middle" x="121" y="-125.8" font-family="Times,serif" font-size="14.00">8/8</text>
</g>
<!-- 0&#45;&gt;1 -->
<g id="edge6" class="edge">
<title>0&#45;&gt;1</title>
<path fill="none" stroke="black" d="M33.56,-67.89C49.85,-58.14 77.32,-43.01 103,-35 133.97,-25.34 171.17,-21.15 195.85,-19.35"/>
<polygon fill="black" stroke="black" points="196.18,-22.83 205.93,-18.69 195.72,-15.85 196.18,-22.83"/>
<text text-anchor="middle" x="121" y="-38.8" font-family="Times,serif" font-size="14.00">7/7</text>
</g>
</g>
</svg>
